<?xml version="1.0" encoding="utf-8"?>
<svg width="30" height="30" viewBox="0 0 30 30" fill="none" xmlns="http://www.w3.org/2000/svg">
  <g>
    <rect width="30" height="30" />
    <path id="Shape" d="M8.01424 9.2268e-05C7.74667 -0.00353885 7.48881 0.100209 7.29831 0.288138C7.10781 0.476066 7.00057 0.732498 7.00057 1.00009C7.00057 1.00009 1.01424 1.00009 1.01424 1.00009C0.653606 0.994992 0.31816 1.18447 0.136354 1.49597C-0.0454521 1.80746 -0.0454512 2.19272 0.136356 2.50422C0.318163 2.81572 0.65361 3.00519 1.01425 3.00009C1.01425 3.00009 19.0142 3.00009 19.0142 3.00009C19.3749 3.00519 19.7103 2.81572 19.8921 2.50422C20.0739 2.19272 20.0739 1.80746 19.8921 1.49596C19.7103 1.18447 19.3749 0.994991 19.0142 1.00009C19.0142 1.00009 13.0279 1.00009 13.0279 1.00009C13.0279 0.732506 12.9207 0.476074 12.7302 0.288143C12.5397 0.100214 12.2818 -0.00353694 12.0143 9.2268e-05C12.0143 9.2268e-05 8.01424 9.2268e-05 8.01424 9.2268e-05C8.01424 9.2268e-05 8.01424 9.2268e-05 8.01424 9.2268e-05ZM1.01424 5.00009C1.01424 5.00009 1.01424 21.0001 1.01424 21.0001C1.01424 22.1051 1.90924 23.0001 3.01424 23.0001C3.01424 23.0001 17.0142 23.0001 17.0142 23.0001C18.1192 23.0001 19.0142 22.1051 19.0142 21.0001C19.0142 21.0001 19.0142 5.00009 19.0142 5.00009L1.01424 5.00009L1.01424 5.00009Z" fill="#FC4850" transform="translate(4.986 3)" />
  </g>
</svg>