<?xml version="1.0" encoding="utf-8"?>
<svg width="64" height="64" viewBox="0 0 64 64" fill="none" xmlns="http://www.w3.org/2000/svg">
  <defs>
    <linearGradient id="gradient_1" gradientUnits="userSpaceOnUse" x1="4" y1="0" x2="4" y2="8">
      <stop offset="0" stop-color="#6DC7FF" />
      <stop offset="1" stop-color="#E6ABFF" />
    </linearGradient>
    <linearGradient id="gradient_2" gradientUnits="userSpaceOnUse" x1="23" y1="0" x2="23" y2="46">
      <stop offset="0" stop-color="#1A6DFF" />
      <stop offset="1" stop-color="#C822FF" />
    </linearGradient>
  </defs>
  <g>
    <rect width="64" height="64" />
    <path id="Circle" d="M0 4C0 1.79086 1.79086 0 4 0C6.20914 0 8 1.79086 8 4C8 6.20914 6.20914 8 4 8C1.79086 8 0 6.20914 0 4Z" fill="url(#gradient_1)" fill-rule="evenodd" transform="translate(15 15)" />
    <path id="Circle" d="M0 4C0 1.79086 1.79086 0 4 0C6.20914 0 8 1.79086 8 4C8 6.20914 6.20914 8 4 8C1.79086 8 0 6.20914 0 4Z" fill="url(#gradient_1)" fill-rule="evenodd" transform="translate(15 28)" />
    <path id="Circle" d="M0 4C0 1.79086 1.79086 0 4 0C6.20914 0 8 1.79086 8 4C8 6.20914 6.20914 8 4 8C1.79086 8 0 6.20914 0 4Z" fill="url(#gradient_1)" fill-rule="evenodd" transform="translate(15 41)" />
    <path id="Shape" d="M10 18C7.243 18 5 20.243 5 23C5 25.757 7.243 28 10 28C12.757 28 15 25.757 15 23C15 20.243 12.757 18 10 18C10 18 10 18 10 18ZM10 26C8.346 26 7 24.654 7 23C7 21.346 8.346 20 10 20C11.654 20 13 21.346 13 23C13 24.654 11.654 26 10 26C10 26 10 26 10 26ZM10 5C7.243 5 5 7.243 5 10C5 12.757 7.243 15 10 15C12.757 15 15 12.757 15 10C15 7.243 12.757 5 10 5C10 5 10 5 10 5ZM10 13C8.346 13 7 11.654 7 10C7 8.346 8.346 7 10 7C11.654 7 13 8.346 13 10C13 11.654 11.654 13 10 13C10 13 10 13 10 13ZM41 0C41 0 5 0 5 0C2.243 0 0 2.243 0 5C0 5 0 41 0 41C0 43.757 2.243 46 5 46C5 46 41 46 41 46C43.757 46 46 43.757 46 41C46 41 46 5 46 5C46 2.243 43.757 0 41 0C41 0 41 0 41 0ZM44 41C44 42.654 42.654 44 41 44C41 44 5 44 5 44C3.346 44 2 42.654 2 41C2 41 2 5 2 5C2 3.346 3.346 2 5 2C5 2 41 2 41 2C42.654 2 44 3.346 44 5C44 5 44 41 44 41C44 41 44 41 44 41ZM10 31C7.243 31 5 33.243 5 36C5 38.757 7.243 41 10 41C12.757 41 15 38.757 15 36C15 33.243 12.757 31 10 31C10 31 10 31 10 31ZM10 39C8.346 39 7 37.654 7 36C7 34.346 8.346 33 10 33C11.654 33 13 34.346 13 36C13 37.654 11.654 39 10 39C10 39 10 39 10 39ZM40 10C40 10.552 39.553 11 39 11C39 11 20 11 20 11C19.447 11 19 10.552 19 10C19 9.448 19.447 9 20 9C20 9 39 9 39 9C39.553 9 40 9.448 40 10C40 10 40 10 40 10ZM40 36C40 36.553 39.553 37 39 37C39 37 20 37 20 37C19.447 37 19 36.553 19 36C19 35.447 19.447 35 20 35C20 35 39 35 39 35C39.553 35 40 35.447 40 36C40 36 40 36 40 36ZM40 23C40 23.552 39.553 24 39 24C39 24 20 24 20 24C19.447 24 19 23.552 19 23C19 22.448 19.447 22 20 22C20 22 39 22 39 22C39.553 22 40 22.448 40 23C40 23 40 23 40 23Z" fill="url(#gradient_2)" transform="translate(9 9)" />
  </g>
</svg>